<svg xmlns="http://www.w3.org/2000/svg" width="23.607" height="25.422" viewBox="0 0 23.607 25.422">
  <path id="bell" d="M12.03,24.06a.2.2,0,0,0-.227-.227A2.06,2.06,0,0,1,9.76,21.79a.227.227,0,0,0-.453,0,2.5,2.5,0,0,0,2.5,2.5.2.2,0,0,0,.227-.227Zm11.576-4.086a1.84,1.84,0,0,1-1.816,1.816H15.436A3.633,3.633,0,0,1,11.8,25.422,3.633,3.633,0,0,1,8.172,21.79H1.816a1.745,1.745,0,0,1-1.277-.539A1.745,1.745,0,0,1,0,19.974a12.516,12.516,0,0,0,1.291-1.249A11.232,11.232,0,0,0,2.5,17.03a12.767,12.767,0,0,0,1.057-2.248,16.5,16.5,0,0,0,.709-2.922A23.3,23.3,0,0,0,4.54,8.171,5.9,5.9,0,0,1,6.2,4.164a7.015,7.015,0,0,1,4.355-2.248,1.411,1.411,0,0,1-.114-.553,1.312,1.312,0,0,1,.4-.965,1.369,1.369,0,0,1,1.929,0,1.315,1.315,0,0,1,.4.965,1.408,1.408,0,0,1-.114.553,7.015,7.015,0,0,1,4.355,2.248,5.9,5.9,0,0,1,1.66,4.008,23.192,23.192,0,0,0,.277,3.688,16.586,16.586,0,0,0,.709,2.922A12.7,12.7,0,0,0,21.11,17.03a11.3,11.3,0,0,0,1.206,1.7,12.422,12.422,0,0,0,1.291,1.249Z" fill="#0c214c"/>
</svg>
