<svg xmlns="http://www.w3.org/2000/svg" width="14.295" height="15.442" viewBox="0 0 14.295 15.442">
  <g id="box" transform="translate(-5.817 34.517)">
    <path id="Path_213" data-name="Path 213" d="M17.429,13.058V7.311a1.437,1.437,0,0,0-.718-1.243L11.683,3.2a1.437,1.437,0,0,0-1.437,0L5.218,6.069A1.437,1.437,0,0,0,4.5,7.311v5.746A1.437,1.437,0,0,0,5.218,14.3l5.028,2.873a1.437,1.437,0,0,0,1.437,0L16.711,14.3A1.437,1.437,0,0,0,17.429,13.058Z" transform="translate(2 -37)" fill="none" stroke="#fff" stroke-linecap="round" stroke-linejoin="round" stroke-width="1"/>
    <path id="Path_214" data-name="Path 214" d="M11.25,6.315l3.232,1.868,3.232-1.868" transform="translate(-1.518 -38.726)" fill="none" stroke="#fff" stroke-linecap="round" stroke-linejoin="round" stroke-width="1"/>
    <path id="Path_215" data-name="Path 215" d="M7.732,23.6V19.868L4.5,18" transform="translate(2 -44.816)" fill="none" stroke="#fff" stroke-linecap="round" stroke-linejoin="round" stroke-width="1"/>
    <path id="Path_216" data-name="Path 216" d="M27.982,18,24.75,19.868V23.6" transform="translate(-8.553 -44.816)" fill="none" stroke="#fff" stroke-linecap="round" stroke-linejoin="round" stroke-width="1"/>
    <path id="Path_217" data-name="Path 217" d="M4.9,10.44l6.271,3.627,6.271-3.627" transform="translate(1.789 -40.876)" fill="none" stroke="#fff" stroke-linecap="round" stroke-linejoin="round" stroke-width="1"/>
    <path id="Path_218" data-name="Path 218" d="M18,25.24V18" transform="translate(-5.035 -44.816)" fill="none" stroke="#fff" stroke-linecap="round" stroke-linejoin="round" stroke-width="1"/>
  </g>
</svg>
