<svg xmlns="http://www.w3.org/2000/svg" width="34" height="23.8" viewBox="0 0 34 23.8">
  <path id="Icon_awesome-truck-moving" data-name="Icon awesome-truck-moving" d="M33.007,13.157,29.9,10.049a3.4,3.4,0,0,0-2.407-.993H25.5V3.95a1.7,1.7,0,0,0-1.7-1.7H1.7A1.7,1.7,0,0,0,0,3.95V21.8a4.239,4.239,0,0,0,7.65,2.529A4.239,4.239,0,0,0,15.3,21.8a4.477,4.477,0,0,0-.085-.85h8.67a4.083,4.083,0,0,0-.085.85,4.25,4.25,0,1,0,8.5,0,4.477,4.477,0,0,0-.085-.85h.935A.852.852,0,0,0,34,20.1V15.558A3.389,3.389,0,0,0,33.007,13.157ZM4.25,23.5a1.7,1.7,0,1,1,1.7-1.7A1.705,1.705,0,0,1,4.25,23.5Zm6.8,0a1.7,1.7,0,1,1,1.7-1.7A1.705,1.705,0,0,1,11.05,23.5ZM25.5,11.6h1.992a.844.844,0,0,1,.6.25l2.3,2.3H25.5Zm2.55,11.9a1.7,1.7,0,1,1,1.7-1.7A1.705,1.705,0,0,1,28.05,23.5Z" transform="translate(0 -2.25)" fill="#11204b"/>
</svg>
