<svg xmlns="http://www.w3.org/2000/svg" width="20" height="20" viewBox="0 0 20 20">
  <path id="Icon_awesome-search-dollar" data-name="Icon awesome-search-dollar" d="M19.728,17.291,15.833,13.4a.937.937,0,0,0-.664-.273h-.637a8.123,8.123,0,1,0-1.406,1.406v.637a.937.937,0,0,0,.273.664l3.895,3.894a.934.934,0,0,0,1.324,0l1.105-1.105a.941.941,0,0,0,0-1.328Zm-11.6-3.543a5.624,5.624,0,1,1,5.625-5.624A5.621,5.621,0,0,1,8.126,13.748ZM9.185,7.79,7.427,7.263a.51.51,0,0,1-.343-.5.491.491,0,0,1,.461-.515h1.1a.936.936,0,0,1,.5.145.321.321,0,0,0,.4-.029L10,5.929a.313.313,0,0,0-.022-.474,2.237,2.237,0,0,0-1.225-.443V4.375a.312.312,0,0,0-.312-.313H7.813a.312.312,0,0,0-.312.313V5A1.74,1.74,0,0,0,5.834,6.765,1.768,1.768,0,0,0,7.067,8.46l1.758.527a.51.51,0,0,1,.343.5A.491.491,0,0,1,8.707,10h-1.1a.936.936,0,0,1-.5-.145.321.321,0,0,0-.4.029l-.459.438a.313.313,0,0,0,.022.474,2.237,2.237,0,0,0,1.225.443v.636a.312.312,0,0,0,.313.313h.625a.312.312,0,0,0,.313-.313v-.63a1.739,1.739,0,0,0,1.667-1.761A1.768,1.768,0,0,0,9.185,7.79Z" fill="#fff"/>
</svg>
