<svg xmlns="http://www.w3.org/2000/svg" width="15.796" height="15.796" viewBox="0 0 15.796 15.796">
  <path id="Icon_awesome-phone-alt" data-name="Icon awesome-phone-alt" d="M15.345,11.162,11.89,9.681a.74.74,0,0,0-.864.213L9.5,11.764A11.435,11.435,0,0,1,4.029,6.3L5.9,4.767A.739.739,0,0,0,6.112,3.9L4.631.448A.745.745,0,0,0,3.782.019L.574.76A.74.74,0,0,0,0,1.481,14.314,14.314,0,0,0,14.315,15.8a.74.74,0,0,0,.722-.574l.74-3.209a.749.749,0,0,0-.432-.852Z" transform="translate(0 0)" fill="#11204b"/>
</svg>
