<svg xmlns="http://www.w3.org/2000/svg" width="14.282" height="14.282" viewBox="0 0 14.282 14.282">
  <path id="Icon_awesome-pencil-alt" data-name="Icon awesome-pencil-alt" d="M13.891,3.967,12.6,5.253a.335.335,0,0,1-.474,0l-3.1-3.1a.335.335,0,0,1,0-.474L10.32.4a1.342,1.342,0,0,1,1.894,0l1.677,1.677A1.337,1.337,0,0,1,13.891,3.967ZM7.929,2.787.6,10.113.012,13.5a.67.67,0,0,0,.776.776l3.389-.594L11.5,6.358a.335.335,0,0,0,0-.474l-3.1-3.1a.338.338,0,0,0-.477,0Zm-4.466,6.7a.389.389,0,0,1,0-.552l4.3-4.3a.391.391,0,1,1,.552.552l-4.3,4.3a.389.389,0,0,1-.552,0ZM2.456,11.831H3.795v1.013L2,13.159l-.868-.868.315-1.8H2.456Z" transform="translate(-0.002 -0.005)" fill="#11204b"/>
</svg>
