<svg xmlns="http://www.w3.org/2000/svg" width="35.692" height="31.726" viewBox="0 0 35.692 31.726">
  <path id="Icon_awesome-boxes" data-name="Icon awesome-boxes" d="M34.7,17.846H29.743v5.949l-1.983-1.32-1.983,1.32V17.846H20.82a.994.994,0,0,0-.991.991v11.9a.994.994,0,0,0,.991.991H34.7a.994.994,0,0,0,.991-.991v-11.9A.994.994,0,0,0,34.7,17.846ZM10.906,13.88h13.88a.994.994,0,0,0,.991-.991V.991A.994.994,0,0,0,24.786,0H19.829V5.949l-1.983-1.32-1.983,1.32V0H10.906a.994.994,0,0,0-.991.991v11.9A.994.994,0,0,0,10.906,13.88Zm3.966,3.966H9.914v5.949l-1.983-1.32-1.983,1.32V17.846H.991A.994.994,0,0,0,0,18.837v11.9a.994.994,0,0,0,.991.991h13.88a.994.994,0,0,0,.991-.991v-11.9A.994.994,0,0,0,14.872,17.846Z" fill="#11204b"/>
</svg>
