<svg xmlns="http://www.w3.org/2000/svg" width="17.269" height="10.793" viewBox="0 0 17.269 10.793">
  <path id="Icon_metro-eye" data-name="Icon metro-eye" d="M11.205,7.712a9.671,9.671,0,0,0-8.635,5.4,9.606,9.606,0,0,0,17.269,0A9.671,9.671,0,0,0,11.205,7.712Zm4.257,2.862a8.211,8.211,0,0,1,2.52,2.535,8.212,8.212,0,0,1-2.52,2.535,7.913,7.913,0,0,1-8.515,0,8.211,8.211,0,0,1-2.52-2.535,8.211,8.211,0,0,1,2.52-2.535c.066-.042.133-.083.2-.123a4.317,4.317,0,1,0,8.115,0q.1.06.2.123Zm-4.257.916A1.619,1.619,0,1,1,9.586,9.871,1.619,1.619,0,0,1,11.205,11.49Z" transform="translate(-2.571 -7.712)" fill="#65b32d"/>
</svg>
