<svg xmlns="http://www.w3.org/2000/svg" width="17.269" height="13.815" viewBox="0 0 17.269 13.815">
  <path id="Icon_awesome-eye-slash" data-name="Icon awesome-eye-slash" d="M8.635,10.793A3.871,3.871,0,0,1,4.779,7.2L1.948,5.014a8.993,8.993,0,0,0-.991,1.5.873.873,0,0,0,0,.788,8.654,8.654,0,0,0,7.677,4.787,8.381,8.381,0,0,0,2.1-.282l-1.4-1.083a3.889,3.889,0,0,1-.7.07ZM17.1,12.361l-2.983-2.305A8.938,8.938,0,0,0,16.312,7.3a.873.873,0,0,0,0-.788A8.654,8.654,0,0,0,8.635,1.727,8.315,8.315,0,0,0,4.659,2.744L1.227.091A.432.432,0,0,0,.621.167L.091.848a.432.432,0,0,0,.076.606l15.876,12.27a.432.432,0,0,0,.606-.076l.53-.682a.432.432,0,0,0-.076-.606ZM12.145,8.529l-1.06-.82a2.557,2.557,0,0,0-3.133-3.29,1.286,1.286,0,0,1,.251.761,1.258,1.258,0,0,1-.042.27L6.175,3.915a3.84,3.84,0,0,1,2.459-.893A3.883,3.883,0,0,1,12.52,6.907a3.793,3.793,0,0,1-.375,1.622Z" transform="translate(0 0)" fill="#65b32d"/>
</svg>
