<svg xmlns="http://www.w3.org/2000/svg" width="19.897" height="16.836" viewBox="0 0 19.897 16.836">
  <g id="settigns" transform="translate(-3.375 -5.625)">
    <path id="Path_225" data-name="Path 225" d="M15.395,25.9a1.916,1.916,0,0,1,3.511,0h3.6a.768.768,0,0,1,.765.765h0a.768.768,0,0,1-.765.765h-3.6a1.916,1.916,0,0,1-3.511,0H4.14a.768.768,0,0,1-.765-.765h0A.768.768,0,0,1,4.14,25.9Z" transform="translate(0 -6.115)"/>
    <path id="Path_226" data-name="Path 226" d="M7.742,16.335a1.916,1.916,0,0,1,3.511,0H22.507a.768.768,0,0,1,.765.765h0a.768.768,0,0,1-.765.765H11.253a1.916,1.916,0,0,1-3.511,0H4.14a.768.768,0,0,1-.765-.765h0a.768.768,0,0,1,.765-.765Z" transform="translate(0 -3.058)"/>
    <path id="Path_227" data-name="Path 227" d="M15.395,6.773a1.916,1.916,0,0,1,3.511,0h3.6a.768.768,0,0,1,.765.765h0a.768.768,0,0,1-.765.765h-3.6a1.916,1.916,0,0,1-3.511,0H4.14a.768.768,0,0,1-.765-.765h0a.768.768,0,0,1,.765-.765Z"/>
  </g>
</svg>
