<svg xmlns="http://www.w3.org/2000/svg" width="24.716" height="25.317" viewBox="0 0 24.716 25.317">
  <path id="settings-icon" d="M21.739,14.155l2.674,2.08a.629.629,0,0,1,.178.832l-2.555,4.4a.52.52,0,0,1-.772.237l-3.15-1.248A11.99,11.99,0,0,1,15.975,21.7L15.5,25.031a.567.567,0,0,1-.654.535H9.794a.612.612,0,0,1-.654-.535L8.665,21.7a9.748,9.748,0,0,1-2.139-1.248L3.376,21.7a.578.578,0,0,1-.772-.237l-2.555-4.4a.629.629,0,0,1,.178-.832L2.9,14.155q-.059-.713-.059-1.248T2.9,11.659L.227,9.579a.629.629,0,0,1-.178-.832L2.6,4.349a.536.536,0,0,1,.772-.237L6.525,5.36A11.99,11.99,0,0,1,8.665,4.112L9.14.784A.612.612,0,0,1,9.794.249h5.051A.568.568,0,0,1,15.5.784l.476,3.328A9.748,9.748,0,0,1,18.114,5.36l3.15-1.248a.578.578,0,0,1,.772.237l2.555,4.4a.629.629,0,0,1-.178.832l-2.674,2.08a7.7,7.7,0,0,1,.119,1.248A7.7,7.7,0,0,1,21.739,14.155ZM12.32,17.364a4.259,4.259,0,0,0,3.12-1.307,4.293,4.293,0,0,0,1.307-3.15,4.293,4.293,0,0,0-1.307-3.15,4.377,4.377,0,0,0-6.24,0,4.293,4.293,0,0,0-1.307,3.15A4.293,4.293,0,0,0,9.2,16.057,4.259,4.259,0,0,0,12.32,17.364Z" transform="translate(0.038 -0.249)" fill="#0c214c"/>
</svg>
