<svg xmlns="http://www.w3.org/2000/svg" width="22.346" height="15.642" viewBox="0 0 22.346 15.642">
  <path id="truck" d="M21.693,9.418,19.651,7.376a2.235,2.235,0,0,0-1.582-.653H16.76V3.367A1.116,1.116,0,0,0,15.642,2.25H1.117A1.116,1.116,0,0,0,0,3.367V15.1a2.786,2.786,0,0,0,5.028,1.662A2.786,2.786,0,0,0,10.056,15.1,2.943,2.943,0,0,0,10,14.54h5.7a2.684,2.684,0,0,0-.056.559,2.793,2.793,0,1,0,5.587,0,2.943,2.943,0,0,0-.056-.559h.615a.56.56,0,0,0,.559-.559V11A2.227,2.227,0,0,0,21.693,9.418Zm-18.9,6.8A1.117,1.117,0,1,1,3.911,15.1,1.121,1.121,0,0,1,2.793,16.216Zm4.469,0A1.117,1.117,0,1,1,8.38,15.1,1.121,1.121,0,0,1,7.263,16.216ZM16.76,8.4h1.309a.555.555,0,0,1,.395.164l1.512,1.512H16.76Zm1.676,7.821A1.117,1.117,0,1,1,19.553,15.1,1.121,1.121,0,0,1,18.436,16.216Z" transform="translate(0 -2.25)" fill="#afafaf" opacity="0.38"/>
</svg>
