<svg id="Usa-flag" xmlns="http://www.w3.org/2000/svg" width="22.233" height="14.822" viewBox="0 0 22.233 14.822">
  <rect id="Rectangle_384" data-name="Rectangle 384" width="22.233" height="14.822" fill="#f0f0f0"/>
  <rect id="Rectangle_385" data-name="Rectangle 385" width="22.233" height="1.853" transform="translate(0 1.853)" fill="#d80027"/>
  <rect id="Rectangle_386" data-name="Rectangle 386" width="22.233" height="1.853" transform="translate(0 5.558)" fill="#d80027"/>
  <rect id="Rectangle_387" data-name="Rectangle 387" width="22.233" height="1.853" transform="translate(0 9.263)" fill="#d80027"/>
  <rect id="Rectangle_388" data-name="Rectangle 388" width="22.233" height="1.853" transform="translate(0 12.969)" fill="#d80027"/>
  <rect id="Rectangle_389" data-name="Rectangle 389" width="11.116" height="7.981" fill="#2e52b2"/>
  <path id="Path_141" data-name="Path 141" d="M83.121,160.624l-.179.551h-.579l.469.34-.179.551.469-.34.468.34-.179-.551.469-.34H83.3Z" transform="translate(-78.787 -157.355)" fill="#f0f0f0"/>
  <path id="Path_142" data-name="Path 142" d="M83.3,206.948l-.179-.551-.179.551h-.579l.469.34-.179.551.469-.34.468.34-.179-.551.469-.34Z" transform="translate(-78.787 -201.14)" fill="#f0f0f0"/>
  <path id="Path_143" data-name="Path 143" d="M26.938,206.948l-.179-.551-.179.551H26l.469.34-.179.551.469-.34.468.34-.179-.551.468-.34Z" transform="translate(-24.872 -201.14)" fill="#f0f0f0"/>
  <path id="Path_144" data-name="Path 144" d="M26.759,160.624l-.179.551H26l.469.34-.179.551.469-.34.468.34-.179-.551.468-.34h-.579Z" transform="translate(-24.872 -157.355)" fill="#f0f0f0"/>
  <path id="Path_145" data-name="Path 145" d="M83.121,114.85l-.179.551h-.579l.469.34-.179.551.469-.34.468.34-.179-.551.469-.34H83.3Z" transform="translate(-78.787 -113.568)" fill="#f0f0f0"/>
  <path id="Path_146" data-name="Path 146" d="M26.759,114.85l-.179.551H26l.469.34-.179.551.469-.34.468.34-.179-.551.468-.34h-.579Z" transform="translate(-24.872 -113.568)" fill="#f0f0f0"/>
  <path id="Path_147" data-name="Path 147" d="M139.483,160.624l-.179.551h-.579l.469.34-.179.551.468-.34.468.34-.179-.551.469-.34h-.579Z" transform="translate(-132.701 -157.355)" fill="#f0f0f0"/>
  <path id="Path_148" data-name="Path 148" d="M139.662,206.948l-.179-.551-.179.551h-.579l.469.34-.179.551.468-.34.468.34-.179-.551.469-.34Z" transform="translate(-132.701 -201.14)" fill="#f0f0f0"/>
  <path id="Path_149" data-name="Path 149" d="M196.025,206.948l-.179-.551-.179.551h-.579l.468.34-.179.551.469-.34.468.34-.179-.551.469-.34Z" transform="translate(-186.617 -201.14)" fill="#f0f0f0"/>
  <path id="Path_150" data-name="Path 150" d="M195.846,160.624l-.179.551h-.579l.468.34-.179.551.469-.34.468.34-.179-.551.469-.34h-.579Z" transform="translate(-186.617 -157.355)" fill="#f0f0f0"/>
  <path id="Path_151" data-name="Path 151" d="M139.483,114.85l-.179.551h-.579l.469.34-.179.551.468-.34.468.34-.179-.551.469-.34h-.579Z" transform="translate(-132.701 -113.568)" fill="#f0f0f0"/>
  <path id="Path_152" data-name="Path 152" d="M195.846,114.85l-.179.551h-.579l.468.34-.179.551.469-.34.468.34-.179-.551.469-.34h-.579Z" transform="translate(-186.617 -113.568)" fill="#f0f0f0"/>
</svg>
